# xmcd
#
# Track frame offsets: 
#        150
#        13472
#        26743
#        42797
#        56021
#        69373
#        84267
#        98424
#        110645
#        122009
#        134898
#        150450
#        164323
#        176332
#        189810
#        203730
#        217636
#        233356
#        246840
#        259204
#        273029
#        284912
#        298084
#        311717
#
# Disc length: 4323 seconds
#
# Revision: 2
# Processed by: cddbd v1.5.2PL0 Copyright (c) Steve Scherf et al.
# Submitted via: ExactAudioCopy v1.0b3
#
DISCID=5010e118
DTITLE=Carter Family, The - Sunshine In The Shadows [Disc 2]
DYEAR=2003
DGENRE=Country
TTITLE0=Never Loved But One
TTITLE1=My Little Home In Tennessee
TTITLE2=Gold Watch And Chain
TTITLE3=Are You Lonesome Tonight
TTITLE4=Wabash Cannonball
TTITLE5=Jimmie Rodgers Visits The Carter Family In Texas
TTITLE6=When Silver Threads Are Gold Again
TTITLE7=I'm Working On A Building
TTITLE8=I'll Be Home Someday
TTITLE9=In The Shadow Of The Pines
TTITLE10=The Poor Orphan Child
TTITLE11=Chewing Gum
TTITLE12=Jealous Hearted Me
TTITLE13=The Cannonball
TTITLE14=Dying Soldier
TTITLE15=When I'm Gone
TTITLE16=When The Roses Bloom In Heaven
TTITLE17=Longing For Old Virginia
TTITLE18=The Homestead Back On The Farm
TTITLE19=Give Me Roses While I Live
TTITLE20=Rivers Of Jordan
TTITLE21=Bury Me Under The Weeping Willow Tree
TTITLE22=I'm Thinking Tonight Of My Blue Eyes
TTITLE23=The Mountains Of Tennessee
EXTD=
EXTT0=
EXTT1=
EXTT2=
EXTT3=
EXTT4=
EXTT5=
EXTT6=
EXTT7=
EXTT8=
EXTT9=
EXTT10=
EXTT11=
EXTT12=
EXTT13=
EXTT14=
EXTT15=
EXTT16=
EXTT17=
EXTT18=
EXTT19=
EXTT20=
EXTT21=
EXTT22=
EXTT23=
PLAYORDER=
